<svg xmlns="http://www.w3.org/2000/svg" xmlns:xlink="http://www.w3.org/1999/xlink" viewBox="0 0 58.91 68.01"><defs><style>.cls-1{fill:url(#linear-gradient);}.cls-2{fill:url(#linear-gradient-2);}.cls-3{fill:url(#linear-gradient-3);}.cls-4{fill:url(#linear-gradient-4);}.cls-5{fill:url(#linear-gradient-5);}.cls-6{fill:url(#linear-gradient-6);}.cls-7{fill:url(#linear-gradient-7);}.cls-8{fill:url(#linear-gradient-8);}.cls-9{fill:url(#linear-gradient-9);}</style><linearGradient id="linear-gradient" x1="-38.55" y1="56.52" x2="97.92" y2="11.34" gradientUnits="userSpaceOnUse"><stop offset="0" stop-color="#296cef"/><stop offset="1" stop-color="#7b2bed"/></linearGradient><linearGradient id="linear-gradient-2" x1="-38.39" y1="57.01" x2="98.08" y2="11.83" xlink:href="#linear-gradient"/><linearGradient id="linear-gradient-3" x1="-39.59" y1="53.38" x2="96.88" y2="8.2" gradientTransform="translate(18.76 -18.33) rotate(30)" xlink:href="#linear-gradient"/><linearGradient id="linear-gradient-4" x1="-35.86" y1="64.65" x2="100.61" y2="19.47" xlink:href="#linear-gradient"/><linearGradient id="linear-gradient-5" x1="-37.05" y1="61.06" x2="99.42" y2="15.89" xlink:href="#linear-gradient"/><linearGradient id="linear-gradient-6" x1="-41.22" y1="48.47" x2="95.25" y2="3.29" gradientTransform="translate(34.34 -2.83) rotate(60)" xlink:href="#linear-gradient"/><linearGradient id="linear-gradient-7" x1="-33.69" y1="71.22" x2="102.78" y2="26.04" xlink:href="#linear-gradient"/><linearGradient id="linear-gradient-8" x1="-32.84" y1="73.8" x2="103.63" y2="28.62" xlink:href="#linear-gradient"/><linearGradient id="linear-gradient-9" x1="-33.47" y1="71.88" x2="103" y2="26.7" xlink:href="#linear-gradient"/></defs><g id="Layer_2" data-name="Layer 2"><g id="Layer_1-2" data-name="Layer 1"><path class="cls-1" d="M29.46,0,0,17V51L29.46,68l11.83-6.83.61-.35V58.06l-2.4,1.38-8.85,5.11-1.19.69-1.2-.69L2.4,49.62V18.38L29.46,2.77,55.31,17.69l1.2.69V49.62l-6.93,4L47.18,55v2.77l2.2-1.27.2-.11L58.91,51V17Z"/><path class="cls-2" d="M49.12,21.26,29.46,9.91,8.59,22v24.1L28.26,57.41l2.39,1.38V34.7L51.52,22.65ZM28.26,54.64,11,44.67V23.34l1.2-.69,17.27-10,17.26,10-17.26,10h0l-.59.34-.6.35Z"/><rect class="cls-3" x="27.27" y="24.65" width="32.62" height="2.4" transform="translate(-7.08 25.25) rotate(-30)"/><polygon class="cls-4" points="30.65 42.57 41.9 36.07 41.9 38.83 39.5 40.22 30.65 45.32 30.05 45.67 28.86 43.6 30.65 42.57"/><polygon class="cls-5" points="58.31 29.36 56.51 30.4 49.58 34.4 47.18 35.78 47.18 33.02 56.51 27.64 57.11 27.29 58.31 29.36"/><rect class="cls-6" x="18.42" y="16.97" width="2.4" height="22.71" transform="translate(-14.72 31.15) rotate(-60)"/><rect class="cls-7" x="28.26" y="34" width="2.4" height="32.62"/><rect class="cls-8" x="39.5" y="37.73" width="2.4" height="23.45"/><rect class="cls-9" x="47.18" y="33.06" width="2.4" height="23.45"/></g></g></svg>